<?xml version="1.0" standalone="no"?>
<!DOCTYPE svg PUBLIC "-//W3C//DTD SVG 20010904//EN"
 "http://www.w3.org/TR/2001/REC-SVG-20010904/DTD/svg10.dtd">
<svg version="1.0" xmlns="http://www.w3.org/2000/svg"
 width="1024.000000pt" height="1024.000000pt" viewBox="0 0 1024.000000 1024.000000"
 preserveAspectRatio="xMidYMid meet">
<metadata>
Created by potrace 1.11, written by Peter Selinger 2001-2013
</metadata>
<g transform="translate(0.000000,1024.000000) scale(0.100000,-0.100000)"
fill="#000000" stroke="none">
<path d="M0 5120 l0 -5120 5120 0 5120 0 0 5120 0 5120 -5120 0 -5120 0 0
-5120z m2517 1316 c485 -599 885 -1092 890 -1097 4 -4 406 487 893 1091 l885
1099 358 0 357 1 0 -2680 0 -2680 -385 0 -385 0 -2 2081 -3 2081 -819 -1029
-819 -1028 -76 -2 -76 -2 -825 1028 -825 1029 -3 -2079 -2 -2079 -385 0 -385
0 0 2680 0 2680 362 -2 362 -3 883 -1089z m6218 -676 c214 -21 406 -72 668
-180 l127 -53 0 -373 0 -374 -67 41 c-351 215 -733 322 -1031 289 -143 -16
-241 -43 -357 -100 -276 -136 -479 -396 -561 -716 -54 -213 -54 -495 1 -708
104 -413 411 -700 847 -791 343 -73 765 -9 1196 181 l52 23 0 -347 0 -348
-127 -41 c-481 -158 -938 -194 -1369 -108 -164 33 -285 75 -439 151 -164 81
-291 171 -419 300 -261 261 -417 590 -472 993 -18 137 -21 462 -5 601 39 334
151 643 319 880 147 208 383 411 603 518 285 139 658 197 1034 162z"/>
</g>
</svg>
